<svg width="48" height="48" viewBox="0 0 48 48" fill="current" xmlns="http://www.w3.org/2000/svg">
<path fill-rule="evenodd" clip-rule="evenodd" d="M5 0C2.23858 0 0 2.23858 0 5V43C0 45.7614 2.23858 48 5 48H43C45.7614 48 48 45.7614 48 43V5C48 2.23858 45.7614 0 43 0H5ZM27.1097 21.2339C25.5867 22.7446 23.7437 23.5 21.581 23.5C19.4182 23.5 17.5753 22.7446 16.0522 21.2339C14.5292 19.7232 13.7677 17.8952 13.7677 15.75C13.7677 13.6048 14.5292 11.7768 16.0522 10.2661C17.5753 8.75536 19.4182 8 21.581 8C23.7437 8 25.5867 8.75536 27.1097 10.2661C28.6328 11.7768 29.3943 13.6048 29.3943 15.75C29.3943 17.8952 28.6328 19.7232 27.1097 21.2339ZM29.3733 20.1094H35.2219V14.3082H39.1514V20.1094H45V24.007H39.1514V29.8082H35.2219V24.007H29.3733V20.1094ZM15.2298 28.2134C17.5449 27.6696 19.6619 27.3977 21.581 27.3977C23.5 27.3977 25.6171 27.6696 27.9322 28.2134C30.2473 28.7573 32.3643 29.6486 34.2834 30.8874C36.2024 32.1262 37.162 33.5312 37.162 35.1023V39H6V35.1023C6 33.5312 6.95953 32.1262 8.8786 30.8874C10.7977 29.6486 12.9147 28.7573 15.2298 28.2134Z" fill='#F5DC00'/>
</svg>
