<svg width="48" height="48" viewBox="0 0 48 48" fill='current' xmlns="http://www.w3.org/2000/svg">
<path class='into' d="M45.1765 0H2.82353C2.07468 0 1.35651 0.273983 0.826993 0.761675C0.297479 1.24937 0 1.91082 0 2.60052V21.1838H27.0653L15.7712 10.7817L19.7647 7.1036L35.8782 21.9461C36.4073 22.4337 36.7046 23.0949 36.7046 23.7843C36.7046 24.4737 36.4073 25.1349 35.8782 25.6226L19.7647 40.465L15.7712 36.7869L27.0653 26.3848H0V45.3994C0 46.0891 0.297479 46.7506 0.826993 47.2383C1.35651 47.726 2.07468 48 2.82353 48H45.1765C45.9253 48 46.6435 47.726 47.173 47.2383C47.7025 46.7506 48 46.0891 48 45.3994V2.60052C48 1.91082 47.7025 1.24937 47.173 0.761675C46.6435 0.273983 45.9253 0 45.1765 0Z" fill='#F5DC00' />
</svg>
