<svg width="24" height="27" viewBox="0 0 24 27" fill="none" xmlns="http://www.w3.org/2000/svg">
<path d="M4 10.6667V8C4 5.87827 4.84286 3.84344 6.34315 2.34315C7.84344 0.842855 9.87827 0 12 0C14.1217 0 16.1566 0.842855 17.6569 2.34315C18.5509 3.23719 19.5 5 19.5 6.5L16 8C16 9.0414 16 10.6667 16 10.6667H21.3333C22.0406 10.6667 22.7189 10.9476 23.219 11.4477C23.719 11.9478 24 12.6261 24 13.3333V24C24 24.7072 23.719 25.3855 23.219 25.8856C22.7189 26.3857 22.0406 26.6667 21.3333 26.6667H2.66667C1.95942 26.6667 1.28115 26.3857 0.781049 25.8856C0.280952 25.3855 0 24.7072 0 24V13.3333C0 11.8667 1.2 10.6667 2.66667 10.6667H4ZM10.6667 19.64V22.6667H13.3333V19.64C13.8417 19.3465 14.239 18.8934 14.4637 18.3511C14.6883 17.8087 14.7277 17.2074 14.5758 16.6404C14.4239 16.0734 14.0891 15.5723 13.6234 15.215C13.1576 14.8576 12.587 14.6639 12 14.6639C11.413 14.6639 10.8424 14.8576 10.3766 15.215C9.91092 15.5723 9.57613 16.0734 9.4242 16.6404C9.27227 17.2074 9.31168 17.8087 9.53632 18.3511C9.76097 18.8934 10.1583 19.3465 10.6667 19.64ZM8 8V10.6667H16C16 10.6667 16 9.0414 16 8C16 6.93913 15.5786 5.92172 14.8284 5.17157C14.0783 4.42143 13.0609 4 12 4C10.9391 4 9.92172 4.42143 9.17157 5.17157C8.42143 5.92172 8 6.93913 8 8Z" fill="#C9A31E"/>
</svg>
