<svg width="48" height="48" viewBox="0 0 48 48" fill="none" xmlns="http://www.w3.org/2000/svg">
<path fill-rule="evenodd" clip-rule="evenodd" d="M5 0C2.23858 0 0 2.23858 0 5V43C0 45.7614 2.23858 48 5 48H43C45.7614 48 48 45.7614 48 43V5C48 2.23858 45.7614 0 43 0H5ZM13.1667 16.5V20H11.4444C9.55 20 8 21.575 8 23.5V37.5C8 38.4283 8.3629 39.3185 9.00885 39.9749C9.65481 40.6312 10.5309 41 11.4444 41H35.5556C36.4691 41 37.3452 40.6312 37.9911 39.9749C38.6371 39.3185 39 38.4283 39 37.5V23.5C39 22.5717 38.6371 21.6815 37.9911 21.0251C37.3452 20.3687 36.4691 20 35.5556 20H33.8333V16.5C33.8333 13.7152 32.7446 11.0445 30.8068 9.07538C28.8689 7.10625 26.2406 6 23.5 6C20.7594 6 18.1311 7.10625 16.1932 9.07538C14.2554 11.0445 13.1667 13.7152 13.1667 16.5ZM21.7778 35.75V31.7775C21.1211 31.3923 20.6079 30.7976 20.3177 30.0858C20.0276 29.374 19.9767 28.5848 20.1729 27.8405C20.3692 27.0963 20.8016 26.4387 21.4032 25.9697C22.0047 25.5006 22.7418 25.2464 23.5 25.2464C24.2582 25.2464 24.9953 25.5006 25.5968 25.9697C26.1984 26.4387 26.6308 27.0963 26.8271 27.8405C27.0233 28.5848 26.9724 29.374 26.6823 30.0858C26.3921 30.7976 25.8789 31.3923 25.2222 31.7775V35.75H21.7778ZM18.3333 20V16.5C18.3333 15.1076 18.8777 13.7723 19.8466 12.7877C20.8156 11.8031 22.1297 11.25 23.5 11.25C24.8703 11.25 26.1844 11.8031 27.1534 12.7877C28.1223 13.7723 28.6667 15.1076 28.6667 16.5V20H18.3333Z" fill="#F5DC00"/>
</svg>
