<svg width="48" height="48" viewBox="0 0 48 48" fill="current" xmlns="http://www.w3.org/2000/svg">
<path fill-rule="evenodd" clip-rule="evenodd" d="M5 0C2.23858 0 0 2.23858 0 5V43C0 45.7614 2.23858 48 5 48H43C45.7614 48 48 45.7614 48 43V5C48 2.23858 45.7614 0 43 0H5ZM38.0716 25.1234H31.9738V30.3527H26.7112V36.8893H11.3413C9.50358 36.8893 8 35.3205 8 33.4031V9H38.0716V25.1234ZM11.3413 28.1739H18.0239V26.4308H11.3413V28.1739ZM11.3413 24.6877H23.0358V22.9446H11.3413V24.6877ZM11.3413 21.2016H23.0358V19.4585H11.3413V21.2016ZM11.3413 15.9723H34.7303V12.4862H11.3413V15.9723ZM38.107 33.4031H43V36.8579H38.107V42H34.8195V36.8579H29.9265V33.4031H34.8195V28.261H38.107V33.4031Z" fill='#F5DC00'/>
</svg>
